<svg id="Layer_1" data-name="Layer 1" xmlns="http://www.w3.org/2000/svg" xmlns:xlink="http://www.w3.org/1999/xlink" width="1080" height="1080" viewBox="0 0 1080 1080">
  <defs>
    <style>
      .cls-1 {
        fill: #8c8c8c;
      }

      .cls-2 {
        fill: #b55331;
      }

      .cls-3 {
        fill: #231f20;
      }

      .cls-4 {
        fill: #7ccdcd;
      }

      .cls-5 {
        clip-path: url(#clip-path);
      }

      .cls-11, .cls-12, .cls-13, .cls-16, .cls-6 {
        fill: none;
      }

      .cls-6 {
        stroke: #b7e1e4;
      }

      .cls-11, .cls-12, .cls-13, .cls-16, .cls-6, .cls-7 {
        stroke-miterlimit: 10;
      }

      .cls-11, .cls-16, .cls-6 {
        stroke-width: 4px;
      }

      .cls-7 {
        fill: #f2c993;
        stroke: #f2c993;
        stroke-width: 0.88443px;
      }

      .cls-8 {
        clip-path: url(#clip-path-2);
      }

      .cls-9 {
        clip-path: url(#clip-path-3);
      }

      .cls-10 {
        fill: #84321c;
      }

      .cls-11, .cls-12, .cls-13 {
        stroke: #772f23;
      }

      .cls-12 {
        stroke-width: 5.41031px;
      }

      .cls-13 {
        stroke-width: 6.68117px;
      }

      .cls-14 {
        fill: #772f23;
      }

      .cls-15 {
        fill: #a9a9a9;
      }

      .cls-16 {
        stroke: #c99e69;
      }

      .cls-17 {
        fill: #08524d;
      }

      .cls-18 {
        fill: #fff;
      }

      .cls-19 {
        fill: #471d05;
      }
    </style>
    <clipPath id="clip-path">
      <path class="cls-1" d="M412.46086,899.06986l145.47028-60.128c1.99057-7.7152,1.67737-17.18634-5.1016-19.47659L373.41625,758.85268a7.7448,7.7448,0,0,0-9.9345,9.43323l33.943,120.74021C398.68022,893.49134,403.55229,895.85931,412.46086,899.06986Z"/>
    </clipPath>
    <clipPath id="clip-path-2">
      <path class="cls-2" d="M679.74389,684.28017s50.85555,30.08334,78.79008,28.6508,72.34326-21.4881,82.371-19.33929,33.66469,9.31151,32.94842,33.66469-49.42263,30.08334-73.05954,30.08334c-23.63728,0-35.81349-8.59524-48.70635-7.879-12.89286.71665-24.35354,6.44643-35.09723-1.43254-10.74405-7.879-74.49206-25.78572-74.49206-25.78572Z"/>
    </clipPath>
    <clipPath id="clip-path-3">
      <path class="cls-2" d="M748.50581,717.58654s-50.85479,30.08334-78.7897,28.6508c-27.93451-1.43217-72.34326-21.48772-82.371-19.33929-10.02777,2.14919-33.66469,9.31151-32.94842,33.66506.71665,24.35318,49.423,30.083,73.05992,30.083,23.63652,0,35.81349-8.59486,48.70635-7.87859,12.89248.71627,24.35318,6.44643,35.09723-1.43292,10.74405-7.87859,74.49209-25.78534,74.49209-25.78534Z"/>
    </clipPath>
  </defs>
  <g>
    <path class="cls-3" d="M310.75489,290.40121l-14.882,4.77761-2.96232-9.22747a17.56815,17.56815,0,0,0-12.19391-32.76016,16.89539,16.89539,0,0,0-10.25658,8.47985,17.69647,17.69647,0,0,0-1.05789,13.48008,2.05007,2.05007,0,0,0,1.4862,1.37351,2.01067,2.01067,0,0,0,1.91962-.61626,2.04909,2.04909,0,0,0,.40971-1.97972,13.52321,13.52321,0,0,1,.94188-10.4025,12.8203,12.8203,0,0,1,12.38956-6.73872,13.39432,13.39432,0,0,1,11.32173,8.83019,13.65255,13.65255,0,0,1-.53247,10.37389,12.71947,12.71947,0,0,1-7.586,6.81715l-1.26717.4068a.71421.71421,0,0,0-.46258.9l3.95332,12.31439-14.87757,4.77619a2.24682,2.24682,0,0,0-1.26877,2.87237,2.5342,2.5342,0,0,0,1.04313,1.38112,1.91046,1.91046,0,0,0,1.59978.24038.61065.61065,0,0,0,.06142-.02217l33.64542-10.80128a2.06731,2.06731,0,0,0,1.23557-1.14572,2.55047,2.55047,0,0,0,.03788-1.75019A2.23653,2.23653,0,0,0,310.75489,290.40121Z"/>
    <path class="cls-4" d="M318.53354,289.7007c4.7734,14.8689-2.29919,30.41117-15.81295,34.74953l.14279-.04584c-13.51377,4.33836-28.31151-4.18282-33.08491-19.05172h0c-32.61037,10.469-51.30554,43.36563-71.22858,67.71881l31.26116,30.61518,24.52359-16.74657,34.9531,108.87712,62.19408-19.96633-.1411.0453,62.19408-19.96633L378.58169,347.05274l29.68875-.65737,11.22188-42.58922c-30.37551-8.20571-68.34842-24.57444-100.95878-14.10545Z"/>
  </g>
  <g>
    <path class="cls-1" d="M412.46086,899.06986l145.47028-60.128c1.99057-7.7152,1.67737-17.18634-5.1016-19.47659L373.41625,758.85268a7.7448,7.7448,0,0,0-9.9345,9.43323l33.943,120.74021C398.68022,893.49134,403.55229,895.85931,412.46086,899.06986Z"/>
    <g class="cls-5">
      <path class="cls-1" d="M398.3454,890.4014l157.35946-65.04216a8.37756,8.37756,0,0,0-.5191-15.67907L361.1096,744.114a8.37753,8.37753,0,0,0-10.74632,10.2041l36.71708,130.608A8.37766,8.37766,0,0,0,398.3454,890.4014Z"/>
    </g>
  </g>
  <path class="cls-2" d="M818.28819,429.31664,852.445,563.03849s50.82848,30.27163,80.03716,15.13581l6.892,35.396-113.78276,6.43093-47.905-148.13351Z"/>
  <polygon class="cls-2" points="637.627 346.236 633.725 356.688 612.702 363.719 612.45 427.944 676.952 477.903 744.84 354.663 697.528 354.984 693.903 290.602 637.627 346.236"/>
  <line class="cls-6" x1="22.80461" y1="660.53003" x2="1046.92137" y2="660.53003"/>
  <path class="cls-7" d="M830.87723,612.29523s28.6508,7.16232,106.00795,1.43216L821.56574,717.58654l-102.427,24.35318L540.07125,669.59645,496.37879,630.2016s-21.4881-21.4881,94.54763-6.44643Z"/>
  <g>
    <path class="cls-2" d="M679.74389,684.28017s50.85555,30.08334,78.79008,28.6508,72.34326-21.4881,82.371-19.33929,33.66469,9.31151,32.94842,33.66469-49.42263,30.08334-73.05954,30.08334c-23.63728,0-35.81349-8.59524-48.70635-7.879-12.89286.71665-24.35354,6.44643-35.09723-1.43254-10.74405-7.879-74.49206-25.78572-74.49206-25.78572Z"/>
    <g class="cls-8">
      <path class="cls-3" d="M801.15222,692.87541s-21.48848,31.15794,2.50675,75.20835c23.99486,44.05079,89.1758-1.0746,89.1758-1.0746L883.52326,678.55Z"/>
    </g>
  </g>
  <path class="cls-7" d="M722.0719,693.42l-55.22049-20.95852c-12.177-7.879-68.04564-37.96231-101.71033-40.827-33.66507-2.86546-62.14183-19.93631-72.16961-4.17837s-8.053,78.67045,27.76049,87.982c73.59684,5.99861,172.19289,45.237,172.19289,45.237Z"/>
  <g>
    <path class="cls-2" d="M748.50581,717.58654s-50.85479,30.08334-78.7897,28.6508c-27.93451-1.43217-72.34326-21.48772-82.371-19.33929-10.02777,2.14919-33.66469,9.31151-32.94842,33.66506.71665,24.35318,49.423,30.083,73.05992,30.083,23.63652,0,35.81349-8.59486,48.70635-7.87859,12.89248.71627,24.35318,6.44643,35.09723-1.43292,10.74405-7.87859,74.49209-25.78534,74.49209-25.78534Z"/>
    <g class="cls-9">
      <path class="cls-3" d="M627.09824,726.18178s73.05991,12.53491,49.06468,56.5857c-23.99523,44.05042-140.74723,17.54843-140.74723,17.54843l9.31151-88.45953Z"/>
    </g>
  </g>
  <path class="cls-7" d="M736.3296,711.14049l29.00894,67.39426h0s27.5764-13.674,34.02281-18.68791,54.43652-30.08333,64.4643-28.65117c10.02778,1.43254,31.51588-.71589,53.004-18.623,21.48847-17.90637,65.89721-55.15279,47.27381-82.371-18.623-27.21788-69.47818-16.47421-93.83136.71627S758.534,704.69406,736.3296,711.14049Z"/>
  <path class="cls-10" d="M693.90277,290.60226s-15.817,110.51607-60.17812,66.08566c0,0,4.24784-18.32585,1.05561-28.20317C660.04644,306.8379,693.90277,290.60226,693.90277,290.60226Z"/>
  <path class="cls-2" d="M578.60147,233.63089s4.28555,61.41443,28.02452,91.43016c23.73917,30.01546,34.24364,36.97,68.22081.84008,33.97694-36.12991,22.1058-94.79757,9.14112-105.8117C671.02352,209.0755,577.80476,183.469,578.60147,233.63089Z"/>
  <path class="cls-11" d="M627.92991,337.83751a13.51557,13.51557,0,0,0,7.57638-.89283"/>
  <path class="cls-12" d="M617.8819,271.87377c13.33571-12.02057,29.34442-10.27207,34.99884-6.4711"/>
  <path class="cls-13" d="M602.89623,274.1114c-9.145-7.714-18.60582-5.21969-21.64892-2.02576"/>
  <path class="cls-11" d="M605.09693,283.70113c11.36029,2.44586,1.91455,31.431,5.69956,33.76383.76228.46982,5.14458,3.09433,9.00672,1.931"/>
  <path class="cls-11" d="M616.31841,328.84183s14.74232,3.3224,27.99956-5.09208"/>
  <path class="cls-11" d="M647.4404,280.10055s-10.70974-4.745-20.92436,2.33"/>
  <path class="cls-11" d="M581.474,285.67585s9.39636-6.99442,20.92192-2.35167"/>
  <circle class="cls-14" cx="634.85436" cy="283.69615" r="4.77436"/>
  <circle class="cls-14" cx="594.79661" cy="286.29062" r="4.77436"/>
  <g>
    <path class="cls-15" d="M544.29735,887.8356l78.36122-50.04107s6.78314-5.59024,13.91514-3.65642c2.43242.659,11.95248,3.32275,15.34727,4.2324,15.35753,4.11447,40.58835,12.04414,40.58835,12.04414s6.85215,1.67028,1.08672,6.03426c-8.0822,6.11616-77.37747,57.53718-77.37747,57.53718a14.97938,14.97938,0,0,1-12.56221,2.83551c-.87666-.19-57.75282-18.10886-59.7329-18.85015q-1.00728-.37767-2.015-.75533a3.64823,3.64823,0,0,1-2.62392-2.385C538.28242,891.48445,541.72385,889.09713,544.29735,887.8356Z"/>
    <path class="cls-1" d="M577.49337,904.44632a7.83964,7.83964,0,0,1-6.589.907c-1.85457-.73333-1.89438-2.31-.124-3.5093a7.89434,7.89434,0,0,1,6.459-.87136C579.08933,901.67641,579.21863,903.228,577.49337,904.44632Z"/>
    <path class="cls-1" d="M619.68885,844.66072l3.99388-2.59625a34.05588,34.05588,0,0,1,4.86639-2.55c.98056-.18466,1.05943-.65863,6.90144.87363l48.63517,13.07775s2.64288.55133,3.10358,1.24143c.28969.43492-.91306,1.58573-2.80479,3.00235L619.78287,904.2408s-3.91806,3.73795-8.17094,3.56846c0,0-1.78328.39245-6.32092-.56043l-50.83848-15.29117s-5.2141-.976-3.159-2.5568c2.05516-1.58118,21.89534-14.50741,21.89534-14.50741Z"/>
  </g>
  <g>
    <path class="cls-15" d="M786.50115,838.29774l-2.766,1.20719L682.33177,883.74432l1.60918,3.68746,1.206,2.76531,1.20683,2.76529L787.75634,848.723l2.76716-1.20652,4.89631-2.1364c2.76817-1.207,1.60657-3.07626.53432-5.53683l-.13511-.30574c-1.0716-2.46346-1.65221-4.58424-4.42122-3.37549Z"/>
    <g>
      <polygon class="cls-15" points="663.814 896.212 670.885 895.237 669.597 892.283 663.814 896.212"/>
      <polygon class="cls-15" points="682.332 883.744 669.597 892.283 670.885 895.237 686.354 892.962 682.332 883.744"/>
    </g>
  </g>
  <path class="cls-2" d="M934.02381,551.88213s11.77183-10.5456,17.65775-10.0551,2.45246,10.0551,2.45246,10.0551Z"/>
  <path id="Path" class="cls-7" d="M906.23686,625.84846a6.58181,6.58181,0,0,1-4.62268-1.87819,6.14734,6.14734,0,0,1-1.84643-4.5081l-7.57426-63.41983a6.12726,6.12726,0,0,1,1.88687-4.43132,6.55625,6.55625,0,0,1,4.5823-1.82471H955.267a6.58273,6.58273,0,0,1,4.57435,1.8324,6.15334,6.15334,0,0,1,1.89475,4.42363l-5.09443,63.41983a6.14591,6.14591,0,0,1-1.82754,4.48959,6.57739,6.57739,0,0,1-4.58759,1.8967Z"/>
  <path class="cls-2" d="M961.69082,563.03849,932.48215,578.1743s-5.3634,4.98764-.14092,9.21817c0,0-4.4036,3.07541-3.056,6.34828,0,0-.07719,2.80134,5.54454,4.19224,0,0-4.702,5.2873-2.07914,8.99551,0,0,2.79156,2.6953,5.19809,2.88782,0,0-3.02117,2.98373,1.42537,3.754,0,0,10.6468-.07506,19.483-3.69535,0,0,8.78548-.925,6.21181-9.20343,0,0,6.56117-2.214,7.7694-6.642,0,0,.8958-5.84746-3.761-8.60312l-1.34418-1.308s3.57262-3.94352,1.90184-6.83831a13.47256,13.47256,0,0,0-4.566-5.39822S970.03113,565.25746,961.69082,563.03849Z"/>
  <polyline class="cls-16" points="765.339 778.535 736.33 711.14 825.591 660.53"/>
  <polyline class="cls-16" points="590.021 636.995 722.072 693.42 701.289 739.903"/>
  <path class="cls-2" d="M533.92758,474.57379,492.14989,599.97388,370.53775,778.53475l20.55969,12.11132L526.85936,650.79846s18.93751-24.95,25.61889-37.22814c7.18422-13.20221,52.47807-130.77234,52.47807-130.77234Z"/>
  <path class="cls-17" d="M735.89912,354.77667,690.728,369.02016a96.51188,96.51188,0,0,1-54.16092,1.13643l-23.86508-6.438s-41.91832.472-56.89793,22.29712c-14.97938,21.82511-35.48477,88.55811-35.48477,88.55811l75.63459,35.45515-4.60585-27.231,26.19661,139.895,176.68088,19.81712,36.65168-30.21482L777.68634,471.86774s5.65776,15.11858,7.45623,28.23132l58.12874-31.47224s-12.41812-29.07762-24.24663-54.33042c-12.1099-25.85376-21.88082-49.851-43.65877-56.612C748.15662,349.23691,735.89912,354.77667,735.89912,354.77667Z"/>
  <polygon class="cls-2" points="397.536 738.894 327.693 792.529 363.183 807.817 402.897 785.917 420.665 758.433 397.536 738.894"/>
  <path class="cls-15" d="M185.34287,620.30279l192.41612,54.507h0l32.132,207.30233,2.76342,17.00195L206.55955,821.49422l-1.0513-5.52138-32.14063-184.548A9.74427,9.74427,0,0,1,185.34287,620.30279Z"/>
  <path id="Path-2" data-name="Path" class="cls-18" d="M319.40045,421.55661c-10.08181-.53278-14.82329-6.86707-16.03592-10.50959a16.10759,16.10759,0,0,1,.70222-12.33881,14.60414,14.60414,0,0,1-6.41767-2.37349l-.83545.46927a9.66441,9.66441,0,0,1-1.96771.89388c-1.40416.45658-2.43947.398-3.08039-.184-1.28185-1.16405-.67446-2.9424-.01147-4.20247a15.62446,15.62446,0,0,1-4.37759-1.56891c-2.14675-1.30626-3.42484-2.97965-3.2878-4.29454a1.71814,1.71814,0,0,1,1.20743-1.40888,7.08723,7.08723,0,0,1,2.35333-.22885,8.26813,8.26813,0,0,0,1.97037-.10433l.30636-.09961a3.22149,3.22149,0,0,0,1.43345-.97424,14.65849,14.65849,0,0,1,10.20785-14.27255l1.42969-.46489a14.71221,14.71221,0,0,1,16.14156,7.709,14.38941,14.38941,0,0,1,1.218,9.823,32.77872,32.77872,0,0,1,6.4236-.73369,25.45071,25.45071,0,0,0,7.19014-1.06763,10.25519,10.25519,0,0,0,7.01123-6.74,7.06025,7.06025,0,0,1,1.55576-2.59486,1.61076,1.61076,0,0,1,.6395-.37732c2.553-.83015,7.46145,3.58671,9.38865,9.33994a27.27563,27.27563,0,0,1,.38038,12.89013,23.32913,23.32913,0,0,1-15.80139,17.559l-17.59033,5.7197Z"/>
  <polygon class="cls-19" points="578.912 245.91 578.989 243.662 580.312 242.315 580.477 240.242 582.006 239.034 584.1 238.218 584.627 236.362 587.031 235.809 587.495 233.905 587.423 231.575 588.144 229.797 589.036 228.127 590.805 227.169 592.326 226.037 593.553 224.652 594.846 223.319 597.145 223.172 597.594 220.727 599.53 220.291 601.392 220.639 603.15 220.111 605.131 219.539 607.077 219.479 608.104 222.541 610.67 220.421 611.921 222.504 614.189 221.476 615.203 224.207 617.332 223.596 619.333 223.339 620.243 226.499 622.664 224.867 624.121 226.365 625.809 227.127 627.548 227.731 629.508 227.423 631.335 227.593 632.814 229.578 634.866 228.514 636.469 230.34 638.346 230.392 640.298 229.067 642.109 229.479 643.96 230.161 645.819 229.992 647.785 230.64 649.104 227.344 651.345 227.707 652.897 229.543 654.003 231.205 655.944 231.396 657.835 231.975 660.126 232.321 660.845 234.27 660.577 236.931 662.773 237.519 663.684 239.148 665.002 240.485 664.913 242.765 667.083 243.561 666.889 245.85 667.854 247.413 669.418 248.641 670.128 250.361 670.383 252.32 672.136 253.486 674.2 254.523 673.204 257.094 674.094 258.71 676.144 259.79 676.235 261.786 678.535 262.789 678.111 265.352 678.987 263.551 679.266 261.465 680.018 259.724 682.321 259.093 682.415 256.873 684.068 255.774 685.357 254.41 685.331 252.103 688.279 251.928 689.004 250.156 690.147 248.68 690.786 247.363 691.001 248.771 692.338 250.576 690.957 252.457 689.885 254.332 692.624 256.102 691.911 257.965 692.521 259.794 690.856 261.687 691.205 263.522 691.882 265.351 690.916 267.224 692.617 269.025 690.074 270.942 692.451 272.718 691.976 274.58 692.584 276.409 693.039 278.244 692.012 280.122 691.384 281.987 692.499 283.808 691.874 285.68 691.47 287.661 692.261 289.47 694.353 290.554 694.594 292.499 696.193 293.267 696.883 293.622 697.665 291.431 699.907 291.564 701.882 291.191 702.695 289.198 704.479 288.517 706.211 287.724 706.004 284.743 707.752 283.999 710.168 283.823 711.714 282.708 711.842 280.41 714.271 279.918 713.405 277.115 713.848 275.34 714.77 273.863 717.201 272.919 715.962 270.629 718.332 269.317 718.012 267.379 717.201 265.471 717.567 263.669 719.217 261.862 717.516 260.019 718.334 258.168 719.211 256.282 718.358 254.474 718.999 252.572 717.122 250.882 716.992 249.053 715.901 247.338 716.524 245.414 716.083 243.625 716.648 241.68 715.714 239.977 714.423 238.357 716.531 236.066 713.833 234.759 715.1 232.59 715.329 230.629 715.168 228.75 712.36 227.602 713.121 225.47 713.04 223.559 710.394 222.477 709.877 220.728 711.513 218.19 709.991 216.78 709.608 214.943 707.394 213.871 708.986 211.164 705.581 210.695 705.426 208.748 706.004 206.391 705.547 204.523 702.659 204.018 703.664 201.291 702.103 200.063 699.441 199.602 700.526 196.638 698.433 195.854 697.2 194.482 697.206 192.105 694.784 191.718 694.134 189.83 692.504 188.827 690.876 187.861 689.567 186.587 688.978 184.481 686.546 184.519 685.113 183.41 684.236 181.525 682.788 180.376 681.734 178.577 678.885 179.754 678.715 176.267 676.142 177.202 675.019 175.256 672.528 176.382 670.905 175.572 669.835 173.114 667.418 174.603 666.264 172.122 664.466 171.69 662.262 172.904 660.486 172.679 658.763 172.182 657.305 169.958 655.185 171.876 653.565 170.266 651.897 168.515 650.017 168.788 648.097 170.141 646.332 168.601 644.465 170.343 642.647 168.516 640.796 168.22 639.024 170.237 637.17 169.633 635.29 169.017 633.509 169.784 631.57 168.888 630.087 171.96 628.114 170.865 626.518 172.468 624.373 170.642 622.424 170.217 620.605 170.569 619.076 172.256 617.17 172.267 615.527 173.327 613.278 172.254 611.83 173.907 610.468 175.662 608.592 175.878 606.236 174.918 604.98 176.794 602.812 176.457 600.959 176.914 599.93 179.118 597.83 179.064 596.422 180.404 594.329 180.458 593.525 182.835 592.084 184.024 590.752 185.37 589.021 186.07 587.34 186.87 586.244 188.515 584.489 189.217 582.666 189.865 580.216 189.78 580.455 192.978 578.303 193.307 576.938 194.561 576.517 196.766 573.369 196.278 573.349 198.796 572.198 200.23 569.936 200.799 570.238 203.338 569.154 204.802 568.161 206.327 565.35 206.896 566.825 209.705 565.495 211.101 565.422 212.994 564.718 214.654 562.574 216.087 562.569 218.018 562.863 219.93 563 221.796 563.854 223.559 562.586 225.682 564.604 227.096 565.652 228.633 566.259 230.309 565.763 232.627 567.469 233.777 567.003 236.375 570.324 236.181 570.12 238.76 572.228 239.327 573.344 240.809 574.386 242.415 575.333 244.188 577.53 244.428 578.912 245.91"/>
  <path class="cls-2" d="M683.23747,255.08755s9.37619-16.73574,19.02495-11.57486c7.25631,3.881,7.34758,39.7776-8.6313,41.16728C671.64812,286.59212,683.23747,255.08755,683.23747,255.08755Z"/>
  <path class="cls-11" d="M699.03182,254.23629c.24842-1.69037-1.75164-3.11961-3.40133-2.67511a4.04646,4.04646,0,0,0-2.68146,3.94273,8.20978,8.20978,0,0,0,1.81677,4.70083c1.00251,1.38348,2.20524,2.61792,3.14415,4.04533a5.73586,5.73586,0,0,1,1.073,2.78388c.09256,1.77751-1.09125,3.326-2.01883,4.84512s-1.62329,3.53468-.61638,5.00241"/>
  <path class="cls-6" d="M253.45173,429.94451s-98.29906,84.27877-31.83368,179.25918"/>
</svg>
