<svg id="Layer_1" data-name="Layer 1" xmlns="http://www.w3.org/2000/svg" xmlns:xlink="http://www.w3.org/1999/xlink" width="1080" height="1080" viewBox="0 0 1080 1080">
  <defs>
    <style>
      .cls-1, .cls-9 {
        fill: #a9a9a9;
      }

      .cls-1 {
        clip-rule: evenodd;
      }

      .cls-2 {
        fill: #7ccdcd;
      }

      .cls-12, .cls-14, .cls-15, .cls-16, .cls-17, .cls-18, .cls-19, .cls-20, .cls-22, .cls-3 {
        fill: none;
      }

      .cls-3 {
        stroke: #b7e1e4;
      }

      .cls-12, .cls-14, .cls-15, .cls-16, .cls-17, .cls-18, .cls-19, .cls-20, .cls-22, .cls-3, .cls-8 {
        stroke-miterlimit: 10;
      }

      .cls-19, .cls-3 {
        stroke-width: 3px;
      }

      .cls-4 {
        fill: #d7f9f6;
      }

      .cls-5 {
        fill: #75d8d0;
      }

      .cls-6 {
        fill: #b55331;
      }

      .cls-7 {
        fill: #08524d;
      }

      .cls-8 {
        fill: #f2c993;
        stroke-width: 0.88443px;
      }

      .cls-22, .cls-8 {
        stroke: #f2c993;
      }

      .cls-9 {
        fill-rule: evenodd;
      }

      .cls-10 {
        clip-path: url(#clip-path);
      }

      .cls-11 {
        fill: #231f20;
      }

      .cls-12 {
        stroke: #8beae5;
        stroke-width: 7px;
      }

      .cls-13 {
        fill: #84321c;
      }

      .cls-14, .cls-15, .cls-16, .cls-17, .cls-20 {
        stroke: #772f23;
      }

      .cls-14 {
        stroke-width: 2.04023px;
      }

      .cls-15 {
        stroke-width: 5.41031px;
      }

      .cls-16 {
        stroke-width: 6.68117px;
      }

      .cls-17 {
        stroke-width: 2.50191px;
      }

      .cls-18 {
        stroke: #c99e69;
        stroke-width: 4px;
      }

      .cls-19 {
        stroke: #052d29;
      }

      .cls-20 {
        stroke-width: 2.43429px;
      }

      .cls-21 {
        fill: #772f23;
      }

      .cls-22 {
        stroke-width: 11px;
      }

      .cls-23 {
        fill: #471d05;
      }

      .cls-24 {
        fill: #fff;
      }

      .cls-25 {
        fill: #19b9b1;
      }
    </style>
    <clipPath id="clip-path">
      <path class="cls-1" d="M171.25307,447.41936,301.191,444.60522a5.26937,5.26937,0,0,1,4.35538,2.1411l77.565,105.17881a5.26952,5.26952,0,0,0,4.35558,2.1411L486.10586,551.93a5.27,5.27,0,0,1,5.3828,5.15468h0a5.27032,5.27032,0,0,1-5.15467,5.383l-238.89957,5.17381a5.27011,5.27011,0,0,1-4.44688-2.26855L167.03431,455.68848A5.27014,5.27014,0,0,1,171.25307,447.41936Z"/>
    </clipPath>
  </defs>
  <path id="Path" class="cls-2" d="M658.90362,546.91318H657.669v-4.39651c37.65694,0,88.89508-8.165,120.37874-48.98981a112.6003,112.6003,0,0,0,21.60645-48.98981l3.70394.62806a113.00493,113.00493,0,0,1-22.22375,51.50211C749.0333,538.12014,697.17786,546.91318,658.90362,546.91318Z"/>
  <line class="cls-3" x1="49.72759" y1="813.21318" x2="1045.80487" y2="813.21318"/>
  <path class="cls-4" d="M569.72727,705.66713s77.23476-63.67906,61.34594-229.43C615.596,314.77831,437.71988,331.676,405.336,340.56953s-83.35949,188.537-87.08209,261.87009-171.33443,57.54959-171.33443,57.54959L180.95529,675.848,342.7747,726.37227s67.39173,20.62132,135.2218-12.06883C524.8759,691.71029,569.45822,703.9987,569.72727,705.66713Z"/>
  <g>
    <polygon class="cls-5" points="546.273 714.499 597.165 857.75 589.195 857.99 523.506 714.192 546.273 714.499"/>
    <polygon class="cls-5" points="549.662 713.402 597.165 857.75 592.784 857.882 532.866 713.909 549.662 713.402"/>
    <polygon class="cls-5" points="515.578 713.777 489.416 903.88 480.653 904.145 499.082 713.615 515.578 713.777"/>
    <polygon class="cls-5" points="511.05 714.733 489.416 903.88 480.653 904.145 494.184 713.238 511.05 714.733"/>
  </g>
  <g>
    <polygon class="cls-5" points="239.687 691.561 281.76 830.797 271.048 830.554 217.893 685.825 239.687 691.561"/>
    <polygon class="cls-5" points="242.316 692.422 281.76 830.797 277.378 830.697 231.034 688.767 242.316 692.422"/>
    <polygon class="cls-5" points="217.893 685.825 140.092 871.074 131.345 870.495 198.213 678.504 217.893 685.825"/>
    <polygon class="cls-5" points="203.235 680.99 140.092 871.074 131.345 870.495 193.584 678.296 203.235 680.99"/>
  </g>
  <path class="cls-5" d="M567.95693,708.93949s-87.78159,53.28059-211.97806,25.36757l67.42276-45.44332,125.79783-6.43685Z"/>
  <path class="cls-6" d="M482.27831,301.19332s-3.91678,23.20592,5.887,42.0397c9.80357,18.83358,38.30182,23.25034,47.62781,26.267,9.32619,3.0165,19.69137,1.76066,37.18,56.64284s17.90181,156.341,13.35568,162.144c-9.52749,12.16129-76.44927,2.3083-76.44927,2.3083l-.06918-32.97136s36.18616-2.46757,37.52576-2.45221c0,0-9.21938-65.02655-11.61208-100.57517s-141.23452-2.33217-141.23452-2.33217l-31.24553,75.7512L328.6211,488.22491s12.01278-93.70264,25.99452-111.27545c13.98154-17.573,28.32127-23.28322,58.05788-21.54237,29.73661,1.74066,11.36783-38.60282,11.36783-38.60282Z"/>
  <path class="cls-7" d="M368.25175,413.47775s1.57947,28.7384-4.07334,38.14418l6.80807,125.2944h0c0-32.08513,169.87982,24.48888,169.87982,24.48888s-.20407-79.18071-2.36922-120.50674c-2.03649-38.87048-6.56105-86.21554-29.78688-90.7913-11.32455-2.23128-50.70249,56.34707-77.47354,55.77053C403.103,445.27165,387.37061,386.19789,368.25175,413.47775Z"/>
  <path class="cls-8" d="M380.5182,557.56978s-79.31422-5.19106-129.12066-16.22041c-49.80644-11.02955-90.2581-7.16944-98.56944,23.42514-8.31113,30.59458,186.89943,83.73884,229.25732,88.3967,42.35809,4.65785,57.02813-99.34959,57.02813-99.34959Z"/>
  <path class="cls-7" d="M509.83588,361.316l-17.57038,7.83383a77.78451,77.78451,0,0,1-84.51894-13.96485l0,0s-34.45527-4.19583-49.13579,12.07892c-14.68032,16.27475-38.80608,68.80261-38.80608,68.80261l46.60962,29.92732c9.98517,2.99681,164.91534-4.00866,164.91534-4.00866s2.99049,13.02689,3.03285,23.98555l60.44758-18.94576s-5.33146-25.0262-13.31784-46.68992c-21.862-59.3024-71.65633-59.019-71.65633-59.019Z"/>
  <g>
    <path class="cls-9" d="M171.25307,447.41936,301.191,444.60522a5.26937,5.26937,0,0,1,4.35538,2.1411l77.565,105.17881a5.26952,5.26952,0,0,0,4.35558,2.1411L486.10586,551.93a5.27,5.27,0,0,1,5.3828,5.15468h0a5.27032,5.27032,0,0,1-5.15467,5.383l-238.89957,5.17381a5.27011,5.27011,0,0,1-4.44688-2.26855L167.03431,455.68848A5.27014,5.27014,0,0,1,171.25307,447.41936Z"/>
    <g class="cls-10">
      <polygon class="cls-9" points="292.846 439.304 392.017 578.848 505.759 573.433 485.457 531.702 329.957 439.343 292.846 439.304"/>
    </g>
  </g>
  <path class="cls-11" d="M241.60725,610.59728s-14.13363.1679-14.28211,15.391c-.14848,15.2233,10.48717,34.30406,28.70594,46.04495,18.219,11.74068,55.16167-9.39191,55.16167-9.39191Z"/>
  <path class="cls-11" d="M338.41,612.07459c3.11252-1.22454,10.30859,15.66747,3.81246,29.59309s-47.07164,31.84406-77.62012,26.33826c-13.23511-2.38534-38.302-46.31346-26.39073-56.66793,11.91146-10.35427,28.04319,7.32331,41.7659,7.94494C293.70041,619.90438,317.27723,620.388,338.41,612.07459Z"/>
  <path class="cls-8" d="M559.75143,616.80337l-55.19114-80.12956c-16.67274-27.86148-56.096-22.71326-73.97214-3.04372-17.87631,19.66954-80.13207,76.95952-126.02635,86.261-31.5483,6.39385,4.28638,28.78562,33.55856,49.77042,13.31113,9.54264,16.63725,24.77838,26.82521,27.56384,32.59162,8.91062,150.16041,13.93609,189.10613-7.02921S559.75143,616.80337,559.75143,616.80337Z"/>
  <path class="cls-6" d="M356.364,642.40391s14.42822,8.13988,26.32088,8.77026-.79209,28.38861-.79209,28.38861-36.38669-3.51879-42.37779-5.31684S356.364,642.40391,356.364,642.40391Z"/>
  <path class="cls-11" d="M384.84218,646.16169c-3.50172-.13728-13.453,24.15344-2.22054,35.68791s89.98946-1.72766,96.4704-5.55153c6.48094-3.82367,4.62037-65.44442,4.62037-65.44442-15.35689-6.13271-25.21522,16.92273-38.57633,22.27349S408.61754,647.09287,384.84218,646.16169Z"/>
  <path class="cls-4" d="M567.95693,704.92691s-17.58945-54.14791-166.10247-30.5843C279.422,693.76819,279.51091,685.95239,251.51264,676.2433c0,0,60.40942,56.89317,130.2681,54.78387,38.96914-1.17663,86.22351-12.42317,131.05653-30.92147C535.93593,690.5751,567.95693,704.92691,567.95693,704.92691Z"/>
  <path class="cls-12" d="M569.68717,705.55553s-51.22389-14.28484-73.87265.25157-110.983,38.31229-161.02826,19.37421c-50.04523-18.93789-116.893-39.35629-142.58765-47.14709-17.94679-5.44159-46.63055-15.08312-46.63055-15.08312"/>
  <path class="cls-8" d="M363.19445,639.22926l-8.632,41.81831s-103.72635-27.21173-142.528-45.16995c-38.8018-17.958-69.33438-46.06059-58.28744-73.43968,11.047-27.37889,56.26-15.55126,91.06758,1.20819,3.67853,1.77117,7.90169,4.01213,12.51328,6.6038C296.353,592.18175,363.19445,639.22926,363.19445,639.22926Z"/>
  <path class="cls-13" d="M482.38477,304.0543s-25.06489,88.97459-56.61562,47.65888c5.423-5.3499,5.49-14.57614,3.95-23.03179C452.82269,313.67766,482.38477,304.0543,482.38477,304.0543Z"/>
  <path class="cls-6" d="M393.98247,244.68949s-4.71334,53.91817,11.48815,81.14855c16.20169,27.23018,26.758,31.11331,58.59447,5.17528,31.83624-25.938,27.32815-75.458,17.89188-85.91514C472.52091,234.64122,398.8131,203.433,393.98247,244.68949Z"/>
  <path class="cls-14" d="M423.07427,335.60849a11.19053,11.19053,0,0,0,6.31578.09561"/>
  <path class="cls-15" d="M422.03979,280.37139c12.25932-8.40757,25.207-5.22219,29.43216-1.48438"/>
  <path class="cls-16" d="M409.76211,279.5622c-7.44613-6.53328-15.31822-4.6209-17.88886-2.02594"/>
  <path class="cls-17" d="M410.25361,288.68061c9.05632,3.24949-1.86522,26.00573.98619,28.33419.57426.46894,3.884,3.10211,7.181,2.56962"/>
  <path class="cls-18" d="M394.32837,567.64271s-38.07783,33.14995-69.14419,45.51539"/>
  <path class="cls-18" d="M257.32788,570.24993c13.46288,2.18941,105.86657,68.97933,105.86657,68.97933h0l-8.632,41.81831"/>
  <path class="cls-19" d="M370.98648,426.14291s-6.80807,15.71715-4.5722,39.85085"/>
  <path class="cls-19" d="M522.63769,454.85094c0,1.17277,8.50256,33.117,8.50256,33.117L563.58376,476.812"/>
  <path class="cls-20" d="M414.5279,326.9559s11.73622,4.33867,23.53686-1.11786"/>
  <path class="cls-20" d="M444.38717,290.98142A14.66555,14.66555,0,0,0,427.9297,290.89"/>
  <path class="cls-20" d="M393.62963,288.1769a15.26911,15.26911,0,0,1,14.38585.94418"/>
  <circle class="cls-21" cx="434.677" cy="291.9301" r="3.95308"/>
  <circle class="cls-21" cx="401.5167" cy="289.67969" r="3.95308"/>
  <g>
    <polygon class="cls-5" points="738.373 719.519 701.386 887.192 714.948 887.192 774.127 719.519 738.373 719.519"/>
    <polygon class="cls-5" points="738.373 719.519 701.386 887.192 706.935 887.192 759.641 719.519 738.373 719.519"/>
    <polygon class="cls-5" points="856.731 719.519 893.717 887.192 880.156 887.192 820.977 719.519 856.731 719.519"/>
    <polygon class="cls-5" points="856.731 719.519 893.717 887.192 886.32 887.192 833.614 719.519 856.731 719.519"/>
    <polygon class="cls-5" points="790.155 724.45 800.018 904.145 811.114 904.145 818.511 721.985 790.155 724.45"/>
    <g>
      <ellipse class="cls-5" cx="804.3328" cy="712.05784" rx="175.07042" ry="16.02767"/>
      <rect class="cls-5" x="629.26238" y="700.9618" width="350.13376" height="10.35179"/>
      <ellipse class="cls-4" cx="804.3328" cy="700.9618" rx="175.07042" ry="16.02767"/>
    </g>
  </g>
  <g>
    <rect class="cls-8" x="708.52457" y="632.5659" width="56.71933" height="69.28778" rx="3.41909" transform="translate(1473.76846 1334.41958) rotate(-180)"/>
    <path class="cls-22" d="M710.00794,651.93109s-14.95226-1.24524-14.19713,15.54133,14.65693,13.3999,14.65693,13.3999"/>
  </g>
  <polygon class="cls-6" points="518.581 557.029 542.477 555.449 543.943 593.851 518.581 557.029"/>
  <polygon class="cls-23" points="393.354 252.674 394 250.661 395.486 249.546 396.188 247.689 397.825 246.724 399.841 246.163 400.81 244.549 403.036 244.261 403.983 242.613 404.603 240.549 405.766 239.06 407.067 237.701 408.932 237.092 410.664 236.356 412.283 235.442 414.031 234.742 415.835 235.664 417.931 234.818 419.523 235.96 420.912 237.379 422.789 237.829 424.784 238.105 426.629 238.663 427.232 241.43 429.948 240.405 430.987 242.415 433.27 242.102 434.12 244.561 436.248 244.49 438.229 244.643 439.097 247.383 441.517 246.397 443.002 247.794 444.736 248.575 446.538 249.179 448.511 248.992 450.38 249.112 452.132 250.619 454.077 249.577 455.506 251.093 456.949 251.712 459.046 251.938 460.081 253.483 460.719 255.258 461.734 256.736 462.029 258.623 465.017 259.145 465.484 260.984 465.167 263.126 465.078 265.121 466.393 266.564 467.562 268.09 469.148 269.501 469.095 271.461 468.155 273.667 469.697 275.122 469.999 276.939 470.703 278.649 470.112 280.68 471.615 282.195 472.196 284.857 473.804 283.381 474.748 281.671 476.223 280.512 477.963 279.638 478.766 277.771 479.376 275.697 481.845 275.589 483.151 274.247 483.75 272.155 485.313 271.328 486.242 273.217 484.526 274.843 484.502 276.748 484.971 278.735 484.981 280.646 483.495 282.312 484.143 284.329 483.285 286.099 482.779 287.927 483.545 289.958 481.438 291.525 481.48 293.44 481.119 295.293 480.773 297.149 480.853 299.073 481.557 301.104 480.126 302.788 478.926 304.719 481.532 306.4 481.447 308.564 482.259 310.182 483.255 310.475 484.867 309.602 486.341 308.439 488.321 308.418 489.344 306.438 491.929 307.379 492.55 304.856 494.284 304.225 495.482 302.818 496.666 301.462 498.566 300.912 500.229 299.987 500.756 298.057 502.239 296.903 503.489 295.498 504.278 293.806 503.783 291.682 504.723 290.037 504.193 288.031 505.892 286.486 505.063 284.464 506.388 282.792 507.272 281.024 506.586 279.072 507.199 277.261 507.729 275.428 505.951 273.464 506.55 271.645 507.867 269.821 508.196 267.953 507.09 266.095 508.352 264.197 506.462 262.407 505.943 260.589 505.932 258.742 507.254 256.756 505.561 255.075 506.917 253.027 506.178 251.248 505.105 249.548 504.972 247.69 505.835 245.598 504.091 244.093 504.283 242.124 504.495 240.114 503.366 238.5 503.345 236.524 501.412 235.245 500.765 233.511 499.385 232.102 499.227 230.145 498.263 228.563 497.974 226.606 496.597 225.261 494.958 224.127 495.559 221.466 492.941 221.088 492.858 218.792 492.043 217.008 490.933 215.446 488.258 215.478 487.612 213.45 486.431 211.939 483.899 212.159 482.46 211.044 481.972 208.429 479.982 208.076 478.473 206.937 476.192 207.228 475.534 204.583 472.922 205.904 471.507 204.694 470.277 202.873 468.679 201.909 466.4 203.074 465.173 200.848 463.275 200.902 461.155 202.008 459.837 199.627 457.864 200.245 456.066 200.056 454.451 198.611 452.481 199.636 450.753 198.826 448.914 199.056 447.088 199.297 445.291 199.179 443.516 198.176 441.684 199.41 439.885 199.421 438.065 198.659 436.235 198.637 434.346 198.02 432.723 200.159 430.616 198.047 429.034 199.899 427.055 199.213 425.576 201.148 423.782 201.418 421.639 200.344 420.316 202.476 418.107 201.409 416.38 202.06 415.089 203.954 413.434 204.702 411.703 205.243 409.424 204.509 408.458 206.852 406.341 206.616 404.13 206.323 402.648 207.496 401.625 209.42 399.448 209.382 398.683 211.574 396.347 211.445 394.7 212.37 394.259 214.748 392.529 215.554 390.793 216.434 389.896 218.134 388.041 219.033 388.824 221.858 386.971 222.805 387.092 224.88 384.813 225.865 383.641 227.483 383.202 229.368 384.004 231.379 383.601 233.217 384.191 235.031 383.171 237.081 384.499 238.712 385.992 240.137 386.354 241.926 385.927 244.195 387.724 245.319 387.947 247.376 388.818 249.066 390.935 249.765 391.537 251.677 393.354 252.674"/>
  <path class="cls-6" d="M477.51448,273.74017s9.52516-12.71038,16.87992-7.41973c5.53114,3.97867,1.68125,33.45007-11.58506,32.84355C464.55814,298.32981,477.51448,273.74017,477.51448,273.74017Z"/>
  <path class="cls-14" d="M490.57047,274.76841a2.25412,2.25412,0,0,0-2.49909-2.56743,3.3504,3.3504,0,0,0-2.63185,2.94273,6.7976,6.7976,0,0,0,.97711,4.05676c.67153,1.24508,1.52368,2.38972,2.1382,3.6639a4.74913,4.74913,0,0,1,.57626,2.40213c-.11838,1.469-1.25927,2.61045-2.18666,3.75581s-1.71876,2.72354-1.05284,4.03824"/>
  <g>
    <path class="cls-11" d="M858.485,254.72978l-13.34113-3.77845,2.34279-8.27206a15.58518,15.58518,0,0,0,7.07875-30.19163,14.98834,14.98834,0,0,0-11.7419,1.22823,15.699,15.699,0,0,0-7.40132,9.4397,1.81863,1.81863,0,0,0,.42353,1.7446,1.78369,1.78369,0,0,0,1.72085.48738,1.81778,1.81778,0,0,0,1.27489-1.26143,11.99687,11.99687,0,0,1,5.80429-7.22294,11.37326,11.37326,0,0,1,12.46273,1.10559,11.88247,11.88247,0,0,1,4.02831,12.08365,12.11155,12.11155,0,0,1-5.48775,7.40284,11.28375,11.28375,0,0,1-8.95237,1.31125l-1.136-.32172a.63359.63359,0,0,0-.78373.43778l-3.12654,11.03935-13.33716-3.77732a1.99323,1.99323,0,0,0-2.34793,1.49908,2.24818,2.24818,0,0,0,.09244,1.53263,1.69481,1.69481,0,0,0,1.06389.96321.54128.54128,0,0,0,.05627.01379l30.16177,8.54236a1.834,1.834,0,0,0,1.4755-.23971,2.26261,2.26261,0,0,0,.88745-1.27445A1.98409,1.98409,0,0,0,858.485,254.72978Z"/>
    <path class="cls-2" d="M864.57593,258.03214c-3.77512,13.32938-16.63284,21.339-28.74739,17.90792l.128.03625c-12.11455-3.43106-18.86271-16.9934-15.08759-30.32278h0c-29.23389-8.27957-59.20079,6.844-85.87937,15.05266l8.06166,37.97035,26.34208-.32957L741.7501,395.951l55.75451,15.79069-.12648-.03582,55.75451,15.79069,27.64323-97.604L903.033,343.98627l29.20535-25.95451c-18.41208-20.97911-38.42852-51.72005-67.66242-59.99962Z"/>
  </g>
  <path id="Path-2" data-name="Path" class="cls-24" d="M800.4652,355.87419c-7.1869-5.34455-7.57932-12.35281-6.68648-15.63943a14.28947,14.28947,0,0,1,6.5781-8.77118,12.9557,12.9557,0,0,1-3.57588-4.90511l-.84768-.06357a8.57368,8.57368,0,0,1-1.89272-.30589c-1.26162-.35222-1.99776-.9039-2.18546-1.64865-.37541-1.4895.94664-2.50508,2.05526-3.11046a13.861,13.861,0,0,1-2.46376-3.30885c-.94456-2.01929-1.06706-3.88325-.3201-4.7874a1.52421,1.52421,0,0,1,1.58392-.448,6.28747,6.28747,0,0,1,1.851.98659,7.33479,7.33479,0,0,0,1.507.89052l.27526.07685a2.85787,2.85787,0,0,0,1.53747-.01584,13.004,13.004,0,0,1,14.55055-5.53187l1.28456.35863a13.05158,13.05158,0,0,1,8.13981,13.62223,12.76525,12.76525,0,0,1-3.924,7.85549,29.07846,29.07846,0,0,1,5.10611,2.61241,22.57725,22.57725,0,0,0,5.83643,2.74213,9.09762,9.09762,0,0,0,8.48983-1.53657,6.26353,6.26353,0,0,1,2.42368-1.1531,1.429,1.429,0,0,1,.65777.03527c2.29386.64041,3.75124,6.314,2.34979,11.511a24.1969,24.1969,0,0,1-6.049,9.71014,20.69591,20.69591,0,0,1-20.297,5.21307L800.645,355.8502Z"/>
  <path class="cls-25" d="M895.41344,418.45762a2.85649,2.85649,0,0,0-1.40962-.98324L869.423,409.63486a3.56147,3.56147,0,0,0-4.456,4.0547l5.49208,25.20936a2.85633,2.85633,0,0,0,.84632,1.49582c.04119.0495.06987.10529.11366.15342l19.45241,21.3774a4.32584,4.32584,0,0,0,6.11087.28811l17.73733-16.14011a4.32587,4.32587,0,0,0,.28818-6.11094l-19.45241-21.3774C895.51169,418.53709,895.45884,418.50329,895.41344,418.45762Z"/>
  <path class="cls-11" d="M865.38848,417.524a5.30634,5.30634,0,0,1-2.37932-.54948c-3.58795-1.76761-4.97167-7.274-6.04321-15.58473-.33538-2.6008-1.16645-4.25451-2.47107-4.91472-2.00069-1.01037-5.08558.22991-6.10438.79627a2.16023,2.16023,0,0,1-2.11143-3.76936c.57479-.32379,5.749-3.09754,10.14373-.89225,2.67252,1.34153,4.29669,4.11,4.82719,8.22742.95552,7.40794,2.18948,11.53377,3.66917,12.26255.65283.32167,1.76234-.174,2.57548-.64757a2.15982,2.15982,0,0,1,2.1726,3.7335A8.612,8.612,0,0,1,865.38848,417.524Z"/>
</svg>
