<svg id="Layer_1" data-name="Layer 1" xmlns="http://www.w3.org/2000/svg" xmlns:xlink="http://www.w3.org/1999/xlink" width="1080" height="1080" viewBox="0 0 1080 1080">
  <defs>
    <style>
      .cls-1, .cls-17, .cls-8 {
        fill: #a9a9a9;
      }

      .cls-1 {
        clip-rule: evenodd;
      }

      .cls-2 {
        fill: #7ccdcd;
      }

      .cls-3 {
        fill: #231f20;
      }

      .cls-4 {
        fill: #ec4441;
      }

      .cls-14, .cls-15, .cls-19, .cls-20, .cls-21, .cls-5, .cls-6 {
        fill: none;
      }

      .cls-5 {
        stroke: #ec4441;
        stroke-width: 8px;
      }

      .cls-10, .cls-12, .cls-14, .cls-15, .cls-19, .cls-20, .cls-21, .cls-22, .cls-5, .cls-6 {
        stroke-miterlimit: 10;
      }

      .cls-6 {
        stroke: #b7e1e4;
      }

      .cls-14, .cls-19, .cls-20, .cls-21, .cls-6 {
        stroke-width: 4px;
      }

      .cls-7 {
        fill: #b55331;
      }

      .cls-9 {
        fill: #898989;
      }

      .cls-10 {
        fill: #f2c993;
        stroke: #f2c993;
        stroke-width: 0.88443px;
      }

      .cls-11 {
        fill: #08524d;
      }

      .cls-12, .cls-22 {
        fill: #95e0dd;
        stroke: #95e0dd;
      }

      .cls-12 {
        stroke-width: 7px;
      }

      .cls-13 {
        fill: #84321c;
      }

      .cls-14, .cls-15, .cls-19 {
        stroke: #772f23;
      }

      .cls-15 {
        stroke-width: 5px;
      }

      .cls-16 {
        fill: #772f23;
      }

      .cls-17, .cls-19, .cls-20, .cls-21 {
        fill-rule: evenodd;
      }

      .cls-18 {
        clip-path: url(#clip-path);
      }

      .cls-20 {
        stroke: #052d29;
      }

      .cls-21 {
        stroke: #c99e69;
      }

      .cls-22 {
        stroke-width: 2px;
      }

      .cls-23 {
        fill: #471d05;
      }
    </style>
    <clipPath id="clip-path">
      <path class="cls-1" d="M708.24186,381.80134H603.50242a14.84819,14.84819,0,0,0-12.14487,6.3059l-60.5086,86.02725h0a4.46173,4.46173,0,0,1-3.64739,1.892l-83.523.00009a4.46138,4.46138,0,0,0-4.4613,4.46139h0a4.46162,4.46162,0,0,0,4.46138,4.46147l202.29012-.00031a4.46143,4.46143,0,0,0,3.72208-2.00153L723.799,381.80134Z"/>
    </clipPath>
  </defs>
  <path id="Path" class="cls-2" d="M649.48723,243.395h1.23467v4.3965c-37.65694,0-88.89508,8.165-120.37874,48.98982a112.60025,112.60025,0,0,0-21.60645,48.98981l-3.70394-.62806a113.00493,113.00493,0,0,1,22.22375-51.50211C559.35754,252.188,611.213,243.395,649.48723,243.395Z"/>
  <g>
    <path class="cls-3" d="M791.9836,182.37607l-13.36244-3.70237,2.29562-8.28527A15.58518,15.58518,0,0,0,787.8234,140.157a14.98831,14.98831,0,0,0-11.73472,1.29512,15.699,15.699,0,0,0-7.34741,9.48171,1.81865,1.81865,0,0,0,.43346,1.74216,1.78369,1.78369,0,0,0,1.7236.47756,1.81774,1.81774,0,0,0,1.26768-1.26867,11.99685,11.99685,0,0,1,5.763-7.25589,11.37322,11.37322,0,0,1,12.46883,1.03457A11.88244,11.88244,0,0,1,794.495,157.724a12.11149,12.11149,0,0,1-5.44548,7.434,11.28375,11.28375,0,0,1-8.94475,1.36224L778.967,166.205a.63359.63359,0,0,0-.78123.44224l-3.0636,11.057-13.35846-3.70127a1.99321,1.99321,0,0,0-2.33934,1.51243,2.24813,2.24813,0,0,0,.10116,1.53208,1.69482,1.69482,0,0,0,1.06936.95713.54206.54206,0,0,0,.05635.01347l30.20995,8.37037a1.834,1.834,0,0,0,1.47411-.24811,2.26265,2.26265,0,0,0,.88018-1.27949A1.98409,1.98409,0,0,0,791.9836,182.37607Z"/>
    <path class="cls-2" d="M798.09325,185.64368c-3.69912,13.35067-16.511,21.43339-28.6449,18.07141l.12821.03552c-12.1339-3.362-18.95923-16.88564-15.26011-30.23632h0c-29.2806-8.11287-59.16084,7.18122-85.79221,15.54171l8.27786,37.92381,26.33978-.47965L676.0552,324.26008l55.84358,15.47277-.12669-.0351,55.84358,15.47277,27.08667-97.75993,22.33707,13.96672,29.057-26.12049c-18.53131-20.87388-38.72257-51.50027-68.00317-59.61314Z"/>
  </g>
  <g>
    <rect class="cls-4" x="800.74502" y="409.1894" width="60.77094" height="74.2372" transform="translate(1662.26099 892.61599) rotate(-180)"/>
    <path class="cls-5" d="M802.33436,429.9379s-16.02034-1.33419-15.21127,16.65149S802.827,460.94648,802.827,460.94648"/>
  </g>
  <line class="cls-6" x1="25.17661" y1="840.57297" x2="1054.82339" y2="840.57297"/>
  <polygon class="cls-7" points="406.872 308.758 465.669 429.998 521.992 473.849 519.466 482.108 468.686 482.108 431.309 458.732 382.551 360.473 406.872 308.758"/>
  <g>
    <path class="cls-8" d="M209.2094,525.29721l28.14443,0c14.62937,0,24.9126-11.90963,22.9682-26.60093l-.25149-1.9c-1.94439-14.6913-15.38007-26.60093-30.00948-26.60093H201.91668c-14.62942,0-24.91264,11.90967-22.96825,26.601l.25149,1.9C181.14432,513.38758,194.58,525.29721,209.2094,525.29721Z"/>
    <path class="cls-8" d="M200.499,656.13932h0c4.50429,0,8.15574-5.98266,8.15574-13.36266v-138.357c0-7.38-3.65145-13.36266-8.15574-13.36266h0c-4.5043,0-8.15575,5.98266-8.15575,13.36266v138.357C192.34325,650.15666,195.9947,656.13932,200.499,656.13932Z"/>
    <g>
      <g>
        <rect class="cls-8" x="262.69528" y="674.49625" width="22.14796" height="204.52608"/>
        <rect class="cls-8" x="241.81773" y="857.25005" width="63.90306" height="43.54456"/>
        <g>
          <g>
            <circle class="cls-8" cx="160.72808" cy="940.67883" r="18.66193"/>
            <rect class="cls-8" x="156.24332" y="906.59501" width="9.40622" height="19.73625"/>
          </g>
          <g>
            <circle class="cls-8" cx="390.47816" cy="940.10681" r="18.66193" transform="translate(-603.37186 1160.41601) rotate(-79.94298)"/>
            <rect class="cls-8" x="385.77504" y="906.59501" width="9.40626" height="19.73625"/>
          </g>
        </g>
        <g>
          <g>
            <path class="cls-8" d="M300.87759,880.16238h100.096a15.55152,15.55152,0,0,1,15.55152,15.55152v.0001a15.55159,15.55159,0,0,1-15.55159,15.55159h-100.096A15.55159,15.55159,0,0,1,285.326,895.714v0a15.55159,15.55159,0,0,1,15.55159-15.55159Z" transform="translate(701.85115 1791.42798) rotate(-180)"/>
            <rect class="cls-8" x="395.88389" y="880.16238" width="20.64126" height="31.10322" transform="translate(812.40905 1791.42798) rotate(180)"/>
          </g>
          <g>
            <path class="cls-8" d="M150.45095,880.16238H250.547A15.55159,15.55159,0,0,1,266.09857,895.714v0A15.55159,15.55159,0,0,1,250.547,911.2656H150.451A15.55159,15.55159,0,0,1,134.89943,895.714v-.0001a15.55152,15.55152,0,0,1,15.55152-15.55152Z"/>
            <rect class="cls-8" x="134.89943" y="880.16238" width="20.64126" height="31.10322"/>
          </g>
        </g>
      </g>
      <path class="cls-9" d="M391.181,680.9732H166.5574l-.00006-.00006V663.31729A29.17425,29.17425,0,0,1,195.73159,634.143H407.987l.00006.00006-.04147,31.21433Z"/>
      <path class="cls-9" d="M407.94557,665.35743C407.335,674.08369,391.181,680.9732,391.181,680.9732H166.5574l.04142-15.61577Z"/>
    </g>
    <path class="cls-9" d="M149.93851,538.09022H316.37958c16.50857,0,28.11263-13.43947,25.91849-30.01782L330.676,420.2591c-2.19414-16.57834-17.35566-30.01777-33.86422-30.01777L131.8396,389.12868h0l18.09891,148.96154Z"/>
  </g>
  <g>
    <path class="cls-7" d="M576.97446,890.37031c-16.655-5.127-41.83324-90.32591-46.93444-100.574-16.46661-4.39851-20.48908,13.21576-36.34585,20.13165,3.19528,9.9932,53.29694,113.20831,53.29694,113.20831s14.3913-3.05829,22.21847-1.68281c7.82937,1.3754,14.14354-4.68515,14.14354-4.68515S593.182,895.35956,576.97446,890.37031Z"/>
    <path class="cls-3" d="M668.52424,895.714l-9.60876-18.3197h0c-2.73491-1.2447-10.4866,1.15378-17.43622,3.7292-21.733,8.054-28.10779,12.921-47.28224,11.58706-13.67811-.95189-12.03344-7.67143-17.81721-5.42609-12.36245,4.79926-2.55857,13.36811-18.73326,21.063-19.53966,9.29585-20.19624-3.70364-19.98729,4.087.31359,11.71017,3.46925,28.09237,7.93377,36.84185l.00251.01255c.29137,1.17678,2.07295,10.97152,6.631,12.70418,3.18792,4.5439,19.912-3.65294,31.12654-12.24418,10.8511-8.31314,20.27185-15.43461,40.52364-25.26949A228.30037,228.30037,0,0,0,668.52424,895.714Z"/>
  </g>
  <path class="cls-10" d="M577.87733,860.90394l-70.46286,30.88981c-2.63579-6.50781-90.88932-230.98874-90.88932-230.98874-71.043,13.07542-215.23452,2.42456-232.86735-38.21428C162.87117,574.68329,213.992,496.42051,213.992,496.42051l97.20869-1.33545,5.17891,43.00516s169.55411,32.99,176.15591,82.18858C505.40148,716.15986,577.87733,860.90394,577.87733,860.90394Z"/>
  <path class="cls-7" d="M283.41154,755.43847C279.334,808.44686,264.60162,836.558,264.60162,836.558s-21.05868,21.3268-14.43793,26.77925c6.62079,5.45237,37.5214,12.37315,37.5214,12.37315s7.95478-47.112,37.28631-100.98185Z"/>
  <path class="cls-3" d="M290.97579,889.09256c-.88953-15.54714,11.13352-28.18681,3.2725-33.2735-8.87026-5.73968-12.20763,4.49785-19.11388,4.16186-2.03281-.09892-15.26007-10.01927-10.53285-23.423-4.39714,1.49325-8.53337,3.04259-10.173,3.70042a22.14323,22.14323,0,0,0-8.84195,6.216q-.58812.10617-1.14757.22489c-10.53859,1.06945-15.74355,5.32933-12.98785,21.0157.84473,4.8093,3.86815,10.25922,5.2537,18.021,1.29094,10.35312,2.846,36.3987,15.91163,56.07329,4.31506,6.94192,9.80817,12.7298,16.856,16.45692.02472.01506.04874.03083.07347.0457,11.0328,6.64266,14.17879,5.53432,14.17879,5.53432h0c-.16782-.07732,12.12441-1.88537,12.24089-1.93286.03261-.01415-.0319.01434,0,0h0C308.05213,959.58079,293.50677,933.33633,290.97579,889.09256Z"/>
  <path class="cls-10" d="M221.12337,562.28883c59.16128,1.109,162.60061,32.34635,189.21809,62.24988,39.47885,44.3527-52.43912,118.89142-97.96725,231.57953l-44.50934-35.581s.7813-107.68924,68.87314-147.3719c-84.38272,8.55082-174.81224-15.575-155.59992-87.82966a22.99776,22.99776,0,0,1,6.00868-10.42226"/>
  <polygon class="cls-7" points="367.653 261.338 362.528 272.038 388.487 275.952 388.698 329.638 334.781 371.399 278.033 272.51 317.581 268.651 320.611 214.834 367.653 261.338"/>
  <path class="cls-11" d="M299.36925,269.22446,237.202,275.55222l-36.47317,90.55007,24.981,13.88653L215.6669,433.46528l-17.07148,90.90238,167.06729,48.80456S369.97,544.97462,385.46414,445.308c2.84778-18.31846,8.338-55.057,9.38-67.68395l-9.14825,25.43631,61.2374-48.44974-51.42665-77.8437L369.97,273.20553l-5.83555,5.10584c-13.33386,11.66651-51.32791,2.46035-64.76516-9.08691Z"/>
  <line class="cls-12" x1="834.36165" y1="498.47346" x2="834.36165" y2="957.62565"/>
  <line class="cls-12" x1="420.5704" y1="554.47019" x2="847.96381" y2="554.47019"/>
  <path class="cls-13" d="M320.61145,214.83416s-5.51029,63.03552,43.57814,53.7346c0,0,5.91871-13.08157,8.402-21.22948C354.42186,229.9625,320.61145,214.83416,320.61145,214.83416Z"/>
  <path class="cls-7" d="M416.99168,167.21186s-3.58228,51.33625-23.42566,76.42637c-19.84355,25.08988-28.62422,30.90319-57.0257.70222-28.40128-30.201-18.47821-79.24118-7.64105-88.44788C339.7362,146.686,417.65765,125.28163,416.99168,167.21186Z"/>
  <path class="cls-14" d="M375.7581,254.31805a11.29767,11.29767,0,0,1-6.33309-.74631"/>
  <path class="cls-15" d="M384.15721,199.179c-11.1473-10.048-24.529-8.58641-29.25548-5.40919"/>
  <path class="cls-15" d="M396.68372,201.04948c7.64431-6.44816,15.55259-4.36314,18.09631-1.69334"/>
  <path class="cls-14" d="M394.84416,209.06551c-9.496,2.04449-1.60037,26.27315-4.76426,28.22315-.63719.39272-4.30035,2.58655-7.5287,1.61414"/>
  <path class="cls-14" d="M385.46414,246.79857s-12.32309,2.77719-23.40481-4.25646"/>
  <path class="cls-14" d="M359.4493,206.0558a18.99038,18.99038,0,0,1,17.49064,1.94762"/>
  <path class="cls-14" d="M414.59051,210.71618a18.9904,18.9904,0,0,0-17.48861-1.96575"/>
  <circle class="cls-16" cx="369.96996" cy="209.06135" r="3.99088"/>
  <circle class="cls-16" cx="403.45418" cy="211.23007" r="3.99088"/>
  <path class="cls-7" d="M273.76926,304.91441,305.72079,449.8591l149.82247,3.02854,6.704,21.24483-38.52721,20.95259-144.98869,1.516A21.80267,21.80267,0,0,1,256.99824,478.389L230.72149,320.95587Z"/>
  <polygon class="cls-11" points="204.012 357.951 252.919 359.487 299.369 390.325 278.033 288.884 237.202 275.552 204.012 357.951"/>
  <path class="cls-11" d="M186.3221,554.47019,214.462,439.881l97.31014,117.54845S224.47874,522.128,186.3221,554.47019Z"/>
  <polyline class="cls-7" points="471.066 461.372 489.433 476.632 529.706 476.386 503.428 445.308 454.889 452.696 454.889 474.265 485.38 473.264"/>
  <g>
    <path class="cls-17" d="M708.24186,381.80134H603.50242a14.84819,14.84819,0,0,0-12.14487,6.3059l-60.5086,86.02725h0a4.46173,4.46173,0,0,1-3.64739,1.892l-83.523.00009a4.46138,4.46138,0,0,0-4.4613,4.46139h0a4.46162,4.46162,0,0,0,4.46138,4.46147l202.29012-.00031a4.46143,4.46143,0,0,0,3.72208-2.00153L723.799,381.80134Z"/>
    <g class="cls-18">
      <polygon class="cls-17" points="605.181 377.162 523.805 497.084 427.439 494.586 443.857 458.895 573.773 377.875 605.181 377.162"/>
    </g>
  </g>
  <polyline class="cls-19" points="427.993 452.05 466.934 452.154 503.428 445.308"/>
  <polyline class="cls-20" points="232.222 358.837 252.919 359.487 299.369 390.325 294.953 350.706"/>
  <path class="cls-21" d="M365.66271,573.17222s82.84951,22.09737,63.92912,64.14267L417.6204,665.35743"/>
  <line class="cls-12" x1="433.62404" y1="499.61656" x2="433.62404" y2="958.76874"/>
  <path class="cls-22" d="M888.79848,484.991H388.47384l0,15.39834H888.79848Z"/>
  <polygon class="cls-23" points="417.311 173.155 415.44 172.404 414.467 170.75 412.592 169.902 411.715 168.153 411.23 166.015 409.539 165.013 409.201 162.659 407.391 161.774 405.161 161.382 403.471 160.458 401.86 159.487 400.786 157.839 399.447 156.49 397.817 155.577 396.12 154.885 394.335 153.399 392.745 155.123 390.903 155.178 388.941 155.151 387.457 156.332 386.115 157.774 384.652 158.93 382.049 157.612 381.392 160.538 379.173 160.041 378.094 162.102 375.656 161.032 374.389 162.716 372.959 164.078 370.441 162.515 369.369 164.952 367.363 164.673 365.558 164.949 363.781 165.28 362.15 166.308 360.384 166.826 358.409 165.656 356.721 167.002 354.891 165.706 353.14 165.792 351.293 167.237 349.482 167.662 347.56 168.247 346.164 169.594 344.321 170.551 345.238 173.626 343.893 174.896 341.866 175.815 340.148 177.01 339.938 179.042 339.666 180.997 339.897 183.155 338.502 184.557 336.236 185.628 336.6 187.805 335.724 189.473 335.315 191.316 333.598 192.69 334.12 194.85 332.421 196.259 331.882 198.056 332.403 199.829 331.27 198.396 330.342 196.601 328.366 195.838 326.175 195.292 326.052 192.689 324.63 191.373 322.422 190.842 321.515 189.013 319.119 188.657 318.548 186.125 318.867 188.179 319.912 189.869 320.458 191.614 319.381 193.546 320.62 195.215 320.224 197.069 320.212 198.882 321.578 200.535 319.827 202.547 320.408 204.291 320.552 206.081 320.713 207.875 321.336 209.613 322.636 211.275 321.621 213.205 320.869 215.102 323.364 216.632 322.919 218.501 323.601 220.49 321.505 222.232 321.098 224.305 320.898 226.579 318.996 225.223 316.701 225.777 315.936 222.965 313.359 223.899 311.907 222.595 310.025 222.041 308.219 221.299 307.175 219.447 306.03 217.842 303.996 217.318 303.01 215.592 302.03 213.949 300.892 212.49 298.806 211.605 298.335 209.658 296.627 208.225 297.506 205.987 295.872 204.441 296.66 202.394 297.075 200.467 295.887 198.754 296.174 196.862 296.445 194.99 294.298 193.257 294.782 191.362 296.104 189.474 296.427 187.63 295.267 185.77 296.726 183.964 294.852 182.027 294.522 180.13 294.806 178.271 296.596 176.576 295.204 174.542 297.169 172.927 296.949 171.023 296.443 169.047 297.026 167.257 298.76 165.733 297.764 163.597 298.937 161.978 300.218 160.423 300.138 158.474 301.345 156.935 300.575 154.696 301.29 152.971 301.307 150.945 302.749 149.533 303.418 147.779 304.927 146.462 305.353 144.571 305.595 142.526 308.412 142.116 307.787 139.435 310.079 138.799 311.673 137.721 313.05 136.505 312.766 133.749 314.879 133.205 316.494 132.235 316.649 129.594 318.156 128.437 320.878 128.948 321.923 127.241 323.621 126.468 324.507 124.308 327.179 125.329 327.726 122.273 329.699 122.034 331.964 122.556 333.765 122.207 334.771 119.736 337.119 120.97 338.672 119.877 339.987 117.746 342.299 119.433 343.838 117.991 345.608 117.496 347.622 118.428 349.204 116.783 351.104 117.185 352.868 116.542 354.656 115.958 356.493 115.831 358.384 116.726 360.158 115.28 362.003 115.217 363.849 116.052 365.681 116.171 367.487 117.023 369.408 114.977 371.096 117.619 373.047 116.034 374.79 117.301 376.853 115.805 378.697 116.213 380.247 118.179 382.434 116.72 383.878 118.846 385.702 119.168 387.886 118.199 389.738 118.565 391.501 119.237 392.756 121.4 395.143 120.227 396.483 122.001 397.711 123.931 399.55 124.302 401.756 123.899 402.907 125.821 405.251 125.273 406.177 127.514 407.65 128.644 410.098 128.13 411.368 129.62 412.56 131.168 414.374 131.799 415.281 133.648 418.286 132.907 418.949 135.019 421.12 135.487 421.091 138.118 421.785 139.919 422.88 141.338 424.851 142.201 425.469 143.974 426.749 145.407 426.085 147.602 427.523 149.045 428.905 150.701 428.699 152.64 427.181 154.433 428.048 156.352 426.692 157.906 425.885 159.493 426.431 161.673 424.86 162.931 424.333 164.737 422.642 165.784 422.669 168.118 421.649 169.719 420.652 171.37 419.105 172.503 417.311 173.155"/>
  <path class="cls-7" d="M329.52657,185.14746s-7.83755-13.98938-15.90293-9.67541c-6.06554,3.24416-6.14183,33.25005,7.21489,34.41168C339.2141,211.4821,329.52657,185.14746,329.52657,185.14746Z"/>
  <path class="cls-14" d="M316.32409,184.43589c-.20765-1.413,1.4642-2.60768,2.84317-2.23612a3.38242,3.38242,0,0,1,2.24143,3.29572,6.86256,6.86256,0,0,1-1.51864,3.92942c-.838,1.15645-1.84335,2.18832-2.62819,3.38149a4.79463,4.79463,0,0,0-.89691,2.327c-.07737,1.48582.91217,2.7802,1.68753,4.05s1.35691,2.95463.51524,4.18151"/>
</svg>
