<svg width="64" height="64" viewBox="0 0 64 64" fill="none" xmlns="http://www.w3.org/2000/svg">
<path fill-rule="evenodd" clip-rule="evenodd" d="M44 27C44 29.2091 42.2091 31 40 31C37.7909 31 36 29.2091 36 27C36 24.7909 37.7909 23 40 23C42.2091 23 44 24.7909 44 27ZM42 27C42 28.1046 41.1046 29 40 29C38.8954 29 38 28.1046 38 27C38 25.8954 38.8954 25 40 25C41.1046 25 42 25.8954 42 27Z" fill="#282C33"/>
<path fill-rule="evenodd" clip-rule="evenodd" d="M12 20V44C12 46.2091 13.7909 48 16 48H48C50.2091 48 52 46.2091 52 44V20C52 17.7909 50.2091 16 48 16H16C13.7909 16 12 17.7909 12 20ZM14 20V44C14 44.9752 14.6979 45.7873 15.6215 45.9642L27.2929 34.2929C27.6834 33.9024 28.3166 33.9024 28.7071 34.2929L34 39.5858L37.2929 36.2929C37.6834 35.9024 38.3166 35.9024 38.7071 36.2929L48.3785 45.9642C49.3021 45.7873 50 44.9752 50 44V20C50 18.8954 49.1046 18 48 18H16C14.8954 18 14 18.8954 14 20ZM37.5858 46H18.4142L28 36.4142L37.5858 46ZM45.5858 46H40.4142L35.4142 41L38 38.4142L45.5858 46Z" fill="#282C33"/>
<path d="M59.5004 8.78882L52.7888 15.5004" stroke="#282C33" stroke-width="1.96065" stroke-miterlimit="10" stroke-linecap="round" stroke-linejoin="round"/>
<path d="M51.265 5.44629L49.4433 10.476" stroke="#282C33" stroke-width="1.96065" stroke-miterlimit="10" stroke-linecap="round" stroke-linejoin="round"/>
<path d="M62.7025 16.8837L57.6728 18.7054" stroke="#282C33" stroke-width="1.96065" stroke-miterlimit="10" stroke-linecap="round" stroke-linejoin="round"/>
</svg>
